<svg width="57" height="57" viewBox="0 0 57 57" fill="none" xmlns="http://www.w3.org/2000/svg">
<g id="BigSurIcons">
<path id="Rectangle 5" d="M9.52644 32.5781C8.82719 29.5093 8.5696 28.3418 8.47744 27.3868C7.77827 20.1421 12.0568 13.3385 18.8892 10.83C19.7898 10.4994 20.9537 10.2257 24.0225 9.5265C27.0912 8.82724 28.2587 8.56966 29.2138 8.47749C36.4584 7.77832 43.2621 12.0568 45.7705 18.8892C46.1012 19.7899 46.3748 20.9537 47.074 24.0225C47.7733 27.0913 48.0309 28.2588 48.123 29.2138C48.8222 36.4584 44.5437 43.2621 37.7113 45.7705C36.8107 46.1012 35.6468 46.3748 32.578 47.0741C29.5092 47.7733 28.3418 48.0309 27.3867 48.1231C20.1421 48.8223 13.3384 44.5438 10.83 37.7114C10.4993 36.8107 10.2257 35.6469 9.52644 32.5781Z" fill="#262626" stroke="black" stroke-width="8"/>
<path id="Rectangle 6" d="M6.60142 33.2446C5.92285 30.2666 5.60657 28.8693 5.49131 27.675C4.66105 19.072 9.74177 10.9926 17.8552 8.01384C18.9816 7.60032 20.3779 7.28004 23.356 6.60147C26.334 5.9229 27.7313 5.60662 28.9256 5.49136C37.5286 4.6611 45.608 9.74182 48.5867 17.8553C49.0002 18.9816 49.3205 20.378 49.9991 23.356C50.6776 26.334 50.9939 27.7313 51.1092 28.9256C51.9394 37.5286 46.8587 45.608 38.7453 48.5867C37.6189 49.0003 36.2225 49.3205 33.2445 49.9991C30.2665 50.6777 28.8692 50.994 27.6749 51.1092C19.0719 51.9395 10.9925 46.8588 8.01379 38.7453C7.60027 37.619 7.27999 36.2226 6.60142 33.2446Z" stroke="url(#paint0_linear_262_478)" stroke-width="2"/>
<path id="Union" fill-rule="evenodd" clip-rule="evenodd" d="M10.759 17.0436L11.0594 18.3619L15.7584 19.5099L12.0807 22.8439L12.3811 24.1622L16.9932 20.0605L16.6328 18.4786L10.759 17.0436ZM25.6837 21.6857L19.8834 23.0074L20.2438 24.5893L26.0441 23.2676L25.6837 21.6857Z" fill="white"/>
</g>
<defs>
<linearGradient id="paint0_linear_262_478" x1="23.1338" y1="5.62646" x2="33.4667" y2="50.9741" gradientUnits="userSpaceOnUse">
<stop stop-color="#F1F2F2"/>
<stop offset="1" stop-color="#888886"/>
</linearGradient>
</defs>
</svg>
