<svg width="7" height="144" viewBox="0 0 7 144" fill="none" xmlns="http://www.w3.org/2000/svg">
<path id="Line 12" d="M3.5 143.667C4.97276 143.667 6.16667 142.473 6.16667 141C6.16667 139.527 4.97276 138.333 3.5 138.333C2.02724 138.333 0.833333 139.527 0.833333 141C0.833333 142.473 2.02724 143.667 3.5 143.667ZM3.5 5.66667C4.97276 5.66667 6.16667 4.47276 6.16667 3C6.16667 1.52724 4.97276 0.333328 3.5 0.333328C2.02724 0.333328 0.833333 1.52724 0.833333 3C0.833333 4.47276 2.02724 5.66667 3.5 5.66667ZM4 141L4 3H3L3 141H4Z" fill="black"/>
</svg>
