<svg width="6" height="243" viewBox="0 0 6 243" fill="none" xmlns="http://www.w3.org/2000/svg">
<path id="Line 13" d="M3 242.667C4.47276 242.667 5.66667 241.473 5.66667 240C5.66667 238.527 4.47276 237.333 3 237.333C1.52724 237.333 0.333333 238.527 0.333333 240C0.333333 241.473 1.52724 242.667 3 242.667ZM3 5.66667C4.47276 5.66667 5.66667 4.47276 5.66667 3C5.66667 1.52724 4.47276 0.333328 3 0.333328C1.52724 0.333328 0.333333 1.52724 0.333333 3C0.333333 4.47276 1.52724 5.66667 3 5.66667ZM3.5 240L3.5 3H2.5L2.5 240H3.5Z" fill="black"/>
</svg>
